<?xml version="1.0" encoding="UTF-8" standalone="no"?>
<!-- Created with Inkscape (http://www.inkscape.org/) -->

<svg
   width="210mm"
   height="289.30899mm"
   viewBox="0 0 210 289.30899"
   version="1.1"
   id="svg1"
   xml:space="preserve"
   inkscape:version="1.3.2 (091e20e, 2023-11-25, custom)"
   sodipodi:docname="spider.svg"
   xmlns:inkscape="http://www.inkscape.org/namespaces/inkscape"
   xmlns:sodipodi="http://sodipodi.sourceforge.net/DTD/sodipodi-0.dtd"
   xmlns="http://www.w3.org/2000/svg"
   xmlns:svg="http://www.w3.org/2000/svg"><sodipodi:namedview
     id="namedview1"
     pagecolor="#ffffff"
     bordercolor="#000000"
     borderopacity="0.25"
     inkscape:showpageshadow="2"
     inkscape:pageopacity="0.0"
     inkscape:pagecheckerboard="0"
     inkscape:deskcolor="#d1d1d1"
     inkscape:document-units="mm"
     inkscape:zoom="0.70710678"
     inkscape:cx="772.16061"
     inkscape:cy="364.15999"
     inkscape:window-width="1366"
     inkscape:window-height="705"
     inkscape:window-x="-8"
     inkscape:window-y="-8"
     inkscape:window-maximized="1"
     inkscape:current-layer="layer1" /><defs
     id="defs1" /><g
     inkscape:label="Camada 1"
     inkscape:groupmode="layer"
     id="layer1"
     transform="translate(0,-3.8455201)"><path
       id="rect1"
       style="opacity:1;fill:#ffffff;fill-rule:evenodd;stroke-width:0.0167181"
       d="m 96.70089,108.08556 c -0.03985,-0.0399 0.232835,1.13728 0.606045,2.61589 0.373215,1.47862 0.74036,3.06121 0.815945,3.51699 0.206465,1.2449 0.42646,3.75959 0.33673,3.84939 -0.115685,0.11577 -2.435765,0.10106 -3.708614,-0.0235 l -1.114715,-0.10905 -0.772365,0.76924 c -0.72848,0.72567 -0.775775,0.7575 -0.835185,0.56222 -0.12454,-0.40938 -0.74312,-1.06155 -0.87842,-0.92614 -0.0316,0.0316 0.17088,0.67504 0.35664,1.13348 0.07831,0.19322 -0.149755,0.20953 -0.305395,0.0219 -0.130105,-0.15688 -0.432135,-0.16847 -0.739175,-0.0285 -0.171625,0.0783 -0.248315,0.0783 -0.32652,0 -0.144105,-0.14421 -0.548395,-0.12726 -0.67754,0.0285 -0.147565,0.17795 -0.34924,0.16521 -0.34575,-0.0219 0.0015,-0.084 0.07702,-0.36803 0.167855,-0.63139 0.09082,-0.26336 0.1561,-0.48813 0.144865,-0.49936 -0.08479,-0.0849 -0.68031,0.47619 -0.80454,0.75798 l -0.154405,0.35012 -0.767599,-0.75169 -0.767425,-0.75167 -0.806587,0.0538 c -0.443604,0.0296 -1.502049,0.0789 -2.352001,0.10955 -1.362217,0.0492 -1.551526,0.0394 -1.598182,-0.0823 -0.0929,-0.24227 0.12611,-2.76406 0.350857,-4.0402 0.211516,-1.20099 0.778129,-3.51493 1.224176,-4.99871 0.121674,-0.40475 0.208827,-0.77349 0.193561,-0.81932 -0.03705,-0.11126 -1.164877,2.56495 -1.703054,4.04122 -0.623626,1.71067 -1.051012,3.17819 -1.402926,4.81795 -0.281131,1.30994 -0.26966,1.37945 0.319027,1.94071 0.275649,0.26281 0.536493,0.47859 0.579656,0.4796 0.04315,10e-4 0.278498,-0.0949 0.522967,-0.21331 0.419027,-0.20293 0.559537,-0.21873 2.453121,-0.27464 l 2.008797,-0.0593 0.301831,0.35284 c 0.165996,0.19409 0.392182,0.51398 0.50271,0.71079 0.261498,0.46564 0.173406,0.46642 -0.920811,0.009 -0.957796,-0.40052 -1.292404,-0.42711 -2.114348,-0.16815 -0.983267,0.30978 -5.762765,1.49562 -5.815472,1.44287 -0.02774,-0.0278 -0.0019,-0.82639 0.05737,-1.77476 0.165625,-2.64903 0.626318,-5.16308 1.366323,-7.45599 0.305564,-0.94677 1.018343,-2.74529 1.352026,-3.4117 0.327748,-0.65456 0.01501,-0.21174 -0.512415,0.72562 -1.268766,2.25496 -1.90953,3.65738 -2.555258,5.59246 -0.479909,1.43816 -0.610727,1.96754 -1.130207,4.56988 l -0.36567,1.83185 0.772708,0.7205 c 0.425058,0.39628 0.859565,0.74357 0.965418,0.77179 0.131298,0.035 0.354367,-0.0472 0.702227,-0.25863 2.111421,-1.28364 5.823426,-2.06362 7.322412,-1.53863 0.51057,0.17881 0.899215,0.41663 0.955028,0.58421 0.04851,0.14564 -1.032771,0.311 -2.199289,0.33631 -0.575266,0.0125 -1.070461,0.0263 -1.100419,0.0306 -0.02994,0.005 -0.30451,0.25334 -0.61013,0.55319 -1.014579,0.99545 -6.028776,5.13428 -6.514805,5.37746 -0.432107,0.2162 -0.789885,0.27338 -1.171574,0.18723 l -0.321575,-0.0726 6.5e-4,1.32106 c 0.0023,3.50004 0.772497,7.13479 2.322546,10.96003 0.464892,1.14726 1.690492,3.77557 1.738291,3.72773 0.01317,-0.0132 -0.246091,-0.8278 -0.576084,-1.81036 -1.033648,-3.07775 -1.512562,-5.31185 -1.779149,-8.30018 -0.07564,-0.8479 -0.137552,-2.1181 -0.137552,-2.82256 v -1.28086 l 0.631919,-0.65474 c 1.159739,-1.20156 1.84117,-1.8326 3.291537,-3.04846 0.791655,-0.66365 1.791418,-1.51511 2.221762,-1.89198 0.845324,-0.74026 1.292152,-1.00492 2.085412,-1.2357 0.557577,-0.16223 1.880094,-0.30451 1.880094,-0.20224 0,0.0525 -1.999943,1.81191 -2.554063,2.24687 -0.08641,0.0678 -0.302133,0.14692 -0.47939,0.17565 l -0.322261,0.0521 -0.06912,0.78388 c -0.08773,0.99404 -0.01024,4.34855 0.154236,6.67177 0.463234,6.54237 1.333841,10.67532 2.927058,13.89571 0.42498,0.85901 1.064403,1.893 1.170548,1.893 0.0152,0 -0.14268,-0.38703 -0.350688,-0.86004 h 1.41e-4 c -1.23346,-2.80491 -1.873032,-5.71283 -2.141924,-9.73846 -0.06959,-1.04178 -0.07687,-2.7155 -0.02469,-5.62636 0.100305,-5.5953 0.103368,-5.36161 -0.07627,-5.56026 -0.08312,-0.0919 -0.150998,-0.21614 -0.150998,-0.27618 0,-0.12174 1.100773,-1.44594 1.687218,-2.02963 0.481475,-0.47921 1.163822,-0.96824 1.221282,-0.87521 0.02425,0.0392 -0.09159,0.40289 -0.25757,0.80808 -0.511785,1.24941 -0.511318,1.24278 -0.254165,2.80262 0.27894,1.69198 0.7079,3.46532 1.13548,4.69443 0.35853,1.03062 0.99028,2.44245 1.092925,2.44245 0.03715,0 0.09354,-0.11776 0.125125,-0.26169 0.06713,-0.3059 0.217325,-0.35071 0.219265,-0.0654 0.0035,0.49961 0.15288,0.40508 0.476155,-0.30104 0.76812,-1.6778 1.425495,-3.90557 1.834475,-6.21722 0.290855,-1.64401 0.282675,-1.81628 -0.132955,-2.79358 -0.191755,-0.45089 -0.34865,-0.90211 -0.34865,-1.00282 0,-0.17428 0.0181,-0.17077 0.375715,0.0755 0.892095,0.61426 2.30303,2.11281 2.4521,2.6043 0.035,0.11535 1.4e-4,0.31762 -0.0858,0.49885 -0.190375,0.4015 -0.189865,0.36452 -0.04835,3.52943 0.270785,6.05589 -0.14859,11.09699 -1.225875,14.73649 -0.287245,0.9704 -0.824245,2.40103 -1.11659,2.97452 -0.25986,0.50979 -0.15186,0.43605 0.268295,-0.18314 1.41938,-2.09179 2.705834,-6.34144 3.296649,-10.89001 0.33793,-2.60167 0.521945,-6.09918 0.52671,-10.00748 l 0.0025,-1.85143 -0.26727,0.0535 c -0.305485,0.0611 -0.391025,0.008 -1.606709,-1.00417 -0.924,-0.7691 -1.525315,-1.33124 -1.525315,-1.42584 0,-0.16883 1.883895,0.12659 2.353354,0.36902 0.754075,0.38941 6.699682,5.50163 7.343692,6.31432 l 0.35086,0.4428 -0.0524,2.13715 c -0.0987,4.01656 -0.69952,7.1062 -2.14363,11.02562 -0.24566,0.66672 -0.4328,1.22609 -0.41589,1.24303 0.0508,0.0509 1.41552,-2.82302 1.80792,-3.8073 1.1705,-2.93601 1.93952,-5.89775 2.25888,-8.70005 0.0447,-0.39163 0.10875,-1.40722 0.14249,-2.25674 l 0.0613,-1.5446 -0.20956,0.0608 c -0.65141,0.1887 -0.74981,0.17332 -1.35985,-0.21195 -1.72365,-1.08853 -3.697777,-2.66745 -5.608292,-4.48555 -0.741095,-0.70524 -1.44549,-1.32195 -1.56533,-1.37047 -0.12569,-0.0509 -0.513,-0.0657 -0.915205,-0.0351 -0.626064,0.0476 -2.257239,-0.12922 -2.386554,-0.25862 -0.06839,-0.0684 0.263215,-0.29618 0.838595,-0.57586 0.50689,-0.2464 0.60839,-0.26394 1.494339,-0.25914 1.70506,0.009 3.64056,0.54587 5.606417,1.55447 0.44546,0.22855 0.87904,0.4445 0.96338,0.47994 0.1164,0.0489 0.35381,-0.1188 0.98584,-0.69631 0.97447,-0.89039 0.93051,-0.48634 0.35307,-3.24677 -0.7536,-3.60266 -1.56438,-5.99044 -2.87326,-8.46136 -0.358832,-0.6774 -1.277457,-2.16867 -1.277457,-2.07376 0,0.0297 0.21063,0.53779 0.467975,1.12922 1.216402,2.7955 1.946732,5.59869 2.274032,8.72747 0.14445,1.3808 0.18016,3.15958 0.062,3.08646 -0.0398,-0.0246 -1.08903,-0.30318 -2.331567,-0.61896 -1.24255,-0.31579 -2.573005,-0.67548 -2.956515,-0.79921 -0.455175,-0.14686 -0.909145,-0.22779 -1.30742,-0.23307 -0.544449,-0.007 -0.697549,0.0324 -1.421994,0.368 -0.44651,0.20681 -0.83663,0.35122 -0.867015,0.32081 -0.09052,-0.0906 0.437855,-1.00607 0.71993,-1.24729 l 0.26132,-0.22353 1.849624,0.0605 c 1.21553,0.0397 2.007405,0.1055 2.30995,0.19184 0.253195,0.0723 0.53946,0.15167 0.636175,0.17651 0.22385,0.0575 1.12651,-0.61339 1.265372,-0.94045 0.23462,-0.55263 -1.361507,-5.78169 -2.831387,-9.27557 -0.221775,-0.52715 -0.43577,-0.99101 -0.47564,-1.03092 z"
       inkscape:export-filename="spider.svg"
       inkscape:export-xdpi="96"
       inkscape:export-ydpi="96" /></g></svg>
